<svg xmlns="http://www.w3.org/2000/svg" width="1200" height="420" viewBox="0 0 1200 420"><defs><linearGradient id="bg-grad" x1="0%" x2="100%" y1="0%" y2="100%"><stop offset="0%" stop-color="#070913"/><stop offset="45%" stop-color="#0c1222"/><stop offset="100%" stop-color="#05070d"/></linearGradient><linearGradient id="brand-grad" x1="0%" x2="100%" y1="0%" y2="0%"><stop offset="0%" stop-color="#38bdf8"/><stop offset="50%" stop-color="#818cf8"/><stop offset="100%" stop-color="#c084fc"/></linearGradient><linearGradient id="card-grad" x1="0%" x2="100%" y1="0%" y2="100%"><stop offset="0%" stop-color="#1e293b" stop-opacity=".75"/><stop offset="100%" stop-color="#0f172a" stop-opacity=".85"/></linearGradient><radialGradient id="glow-cyan" cx="20%" cy="40%" r="55%"><stop offset="0%" stop-color="#0284c7" stop-opacity=".22"/><stop offset="100%" stop-color="#070913" stop-opacity="0"/></radialGradient><radialGradient id="glow-purple" cx="80%" cy="45%" r="60%"><stop offset="0%" stop-color="#7c3aed" stop-opacity=".28"/><stop offset="60%" stop-color="#4f46e5" stop-opacity=".08"/><stop offset="100%" stop-color="#070913" stop-opacity="0"/></radialGradient><radialGradient id="orb-glow" cx="50%" cy="50%" r="50%"><stop offset="0%" stop-color="#38bdf8" stop-opacity=".35"/><stop offset="60%" stop-color="#818cf8" stop-opacity=".1"/><stop offset="100%" stop-color="#0f172a" stop-opacity="0"/></radialGradient><pattern id="grid-pattern" width="40" height="40" patternUnits="userSpaceOnUse"><circle cx="2" cy="2" r="1" fill="#334155" fill-opacity=".35"/><path fill="none" stroke="#1e293b" stroke-opacity=".35" stroke-width=".5" d="M 40 0 L 0 0 0 40"/></pattern></defs><rect width="100%" height="100%" fill="url(#bg-grad)" rx="16"/><rect width="100%" height="100%" fill="url(#glow-cyan)" rx="16"/><rect width="100%" height="100%" fill="url(#glow-purple)" rx="16"/><rect width="100%" height="100%" fill="url(#grid-pattern)" rx="16"/><g opacity=".3"><path fill="none" stroke="url(#brand-grad)" stroke-width="2.5" d="M-50 260 C 200 160, 450 320, 800 210 C 980 150, 1120 220, 1250 180"/><path fill="none" stroke="#38bdf8" stroke-opacity=".5" stroke-width="1.2" d="M-50 290 C 250 210, 520 350, 850 250 C 1020 200, 1140 270, 1250 230"/><path fill="none" stroke="#c084fc" stroke-dasharray="6 8" stroke-opacity=".4" stroke-width="1.5" d="M-50 180 C 300 290, 600 130, 920 280 C 1050 330, 1160 250, 1250 270"/></g><g transform="translate(900, 210)"><circle cx="0" cy="0" r="140" fill="url(#orb-glow)"/><ellipse cx="0" cy="0" fill="none" stroke="#38bdf8" stroke-dasharray="7 9" stroke-opacity=".45" stroke-width="1.2" rx="175" ry="70" transform="rotate(-25)"/><ellipse cx="0" cy="0" fill="none" stroke="#a855f7" stroke-dasharray="5 7" stroke-opacity=".45" stroke-width="1.2" rx="185" ry="75" transform="rotate(35)"/><ellipse cx="0" cy="0" fill="none" stroke="#818cf8" stroke-opacity=".3" stroke-width=".8" rx="195" ry="85" transform="rotate(-65)"/><line x1="0" x2="-120" y1="0" y2="-65" stroke="#38bdf8" stroke-opacity=".5" stroke-width="1.5"/><line x1="0" x2="135" y1="0" y2="-45" stroke="#818cf8" stroke-opacity=".5" stroke-width="1.5"/><line x1="0" x2="-80" y1="0" y2="90" stroke="#34d399" stroke-opacity=".4" stroke-width="1.5"/><line x1="0" x2="110" y1="0" y2="85" stroke="#f472b6" stroke-opacity=".4" stroke-width="1.5"/><line x1="0" x2="0" y1="0" y2="-120" stroke="#c084fc" stroke-opacity=".45" stroke-width="1.5"/><circle cx="0" cy="0" r="76" fill="#0b1120" stroke="#1e293b" stroke-width="2.5"/><circle cx="0" cy="0" r="64" fill="#0f172a" stroke="#334155" stroke-width="1.5"/><circle cx="0" cy="0" r="50" fill="#1e1b4b" stroke="#6366f1" stroke-opacity=".8" stroke-width="2"/><circle cx="0" cy="0" r="32" fill="url(#brand-grad)" opacity=".9"/><circle cx="0" cy="0" r="15" fill="#fff" opacity=".9"/><g stroke="#fff" stroke-linecap="round" stroke-width="2.5"><path d="M-8 -6 L-8 6 M-8 -2 L-5 -2"/><path d="M0 -10 L0 10 M0 3 L3 3"/><path d="M8 -7 L8 7 M8 -1 L11 -1"/></g><circle cx="-120" cy="-65" r="7" fill="#38bdf8" stroke="#0f172a" stroke-width="2"/><g transform="translate(-215, -92)"><rect width="105" height="26" fill="#0f172a" fill-opacity=".9" stroke="#38bdf8" stroke-opacity=".8" stroke-width="1" rx="13"/><text x="52" y="17" fill="#38bdf8" font-family="-apple-system, BlinkMacSystemFont, 'Segoe UI', Roboto, sans-serif" font-size="11" font-weight="700" letter-spacing=".5" text-anchor="middle">100+ MODELS</text></g><circle cx="135" cy="-45" r="7" fill="#818cf8" stroke="#0f172a" stroke-width="2"/><g transform="translate(100, -78)"><rect width="118" height="26" fill="#0f172a" fill-opacity=".9" stroke="#818cf8" stroke-opacity=".8" stroke-width="1" rx="13"/><text x="59" y="17" fill="#a5b4fc" font-family="-apple-system, BlinkMacSystemFont, 'Segoe UI', Roboto, sans-serif" font-size="11" font-weight="700" letter-spacing=".5" text-anchor="middle">LoRA &amp; FSDP2</text></g><circle cx="-80" cy="90" r="6" fill="#34d399" stroke="#0f172a" stroke-width="2"/><g transform="translate(-165, 95)"><rect width="112" height="26" fill="#0f172a" fill-opacity=".9" stroke="#34d399" stroke-opacity=".8" stroke-width="1" rx="13"/><text x="56" y="17" fill="#6ee7b7" font-family="-apple-system, BlinkMacSystemFont, 'Segoe UI', Roboto, sans-serif" font-size="11" font-weight="700" letter-spacing=".5" text-anchor="middle">vLLM SERVING</text></g><circle cx="110" cy="85" r="6" fill="#f472b6" stroke="#0f172a" stroke-width="2"/><g transform="translate(75, 95)"><rect width="115" height="26" fill="#0f172a" fill-opacity=".9" stroke="#f472b6" stroke-opacity=".8" stroke-width="1" rx="13"/><text x="57" y="17" fill="#f472b6" font-family="-apple-system, BlinkMacSystemFont, 'Segoe UI', Roboto, sans-serif" font-size="11" font-weight="700" letter-spacing=".5" text-anchor="middle">DPO &amp; ORPO</text></g><circle cx="0" cy="-120" r="6.5" fill="#c084fc" stroke="#0f172a" stroke-width="2"/><g transform="translate(-55, -150)"><rect width="110" height="24" fill="#0f172a" fill-opacity=".9" stroke="#c084fc" stroke-opacity=".8" stroke-width="1" rx="12"/><text x="55" y="16" fill="#e9d5ff" font-family="-apple-system, BlinkMacSystemFont, 'Segoe UI', Roboto, sans-serif" font-size="10.5" font-weight="700" letter-spacing=".5" text-anchor="middle">LLMs + VLMs</text></g></g><g><g transform="translate(70, 68)"><rect width="232" height="30" fill="#1e293b" fill-opacity=".8" stroke="#38bdf8" stroke-opacity=".5" stroke-width="1.2" rx="15"/><circle cx="16" cy="15" r="4.5" fill="#38bdf8"/><text x="32" y="19" fill="#e2e8f0" font-family="ui-monospace, SFMono-Regular, Menlo, Monaco, Consolas, monospace" font-size="11.5" font-weight="700" letter-spacing="1">UNIFIED FINE-TUNING</text></g><g><text x="0" y="0" fill="#0284c7" dx="2" dy="3" font-family="-apple-system, BlinkMacSystemFont, 'Segoe UI', Roboto, Helvetica, Arial, sans-serif" font-size="66" font-weight="900" letter-spacing="-1.5" opacity=".3" transform="translate(70, 68) translate(0, 84)">OmniTune</text><text x="0" y="0" fill="url(#brand-grad)" font-family="-apple-system, BlinkMacSystemFont, 'Segoe UI', Roboto, Helvetica, Arial, sans-serif" font-size="66" font-weight="900" letter-spacing="-1.5" transform="translate(70, 68) translate(0, 84)">OmniTune</text></g><g><text x="0" y="0" fill="#f8fafc" font-family="-apple-system, BlinkMacSystemFont, 'Segoe UI', Roboto, Helvetica, Arial, sans-serif" font-size="21" font-weight="700" letter-spacing="-.2" transform="translate(70, 68) translate(0, 132)">Frontier Fine-Tuning, Alignment &amp; Serving for 100+ LLMs &amp; VLMs</text></g><g><text x="0" y="0" fill="#94a3b8" font-family="-apple-system, BlinkMacSystemFont, 'Segoe UI', Roboto, Helvetica, Arial, sans-serif" font-size="14.5" font-weight="400" transform="translate(70, 68) translate(0, 168)">Production-grade SFT, DPO, PPO &amp; KTO with DeepSpeed, FSDP2, Liger Kernel &amp; vLLM.</text></g><g><g transform="translate(70, 68) translate(0, 212) translate(0, 0)"><rect width="158" height="40" fill="url(#card-grad)" stroke="#334155" stroke-width="1.2" rx="9"/><circle cx="20" cy="20" r="9" fill="#0284c7" fill-opacity=".25"/><path fill="none" stroke="#38bdf8" stroke-linecap="round" stroke-linejoin="round" stroke-width="2" d="M16 20.5 L19 23.5 L24 16.5"/><text x="38" y="24" fill="#f1f5f9" font-family="-apple-system, BlinkMacSystemFont, 'Segoe UI', Roboto, sans-serif" font-size="12.5" font-weight="600">SFT • DPO • KTO</text></g><g transform="translate(70, 68) translate(0, 212) translate(170, 0)"><rect width="152" height="40" fill="url(#card-grad)" stroke="#334155" stroke-width="1.2" rx="9"/><circle cx="20" cy="20" r="9" fill="#4f46e5" fill-opacity=".25"/><path fill="none" stroke="#818cf8" stroke-linecap="round" stroke-linejoin="round" stroke-width="1.8" d="M15 24 L19 16 L22 21 L24 18 L26 24 Z"/><text x="37" y="24" fill="#f1f5f9" font-family="-apple-system, BlinkMacSystemFont, 'Segoe UI', Roboto, sans-serif" font-size="12.5" font-weight="600">LLMs &amp; VLMs</text></g><g transform="translate(70, 68) translate(0, 212) translate(334, 0)"><rect width="170" height="40" fill="url(#card-grad)" stroke="#334155" stroke-width="1.2" rx="9"/><circle cx="20" cy="20" r="9" fill="#7c3aed" fill-opacity=".25"/><rect width="12" height="10" x="14" y="15" fill="none" stroke="#c084fc" stroke-width="1.8" rx="2"/><line x1="14" x2="26" y1="18" y2="18" stroke="#c084fc" stroke-width="1.5"/><text x="37" y="24" fill="#f1f5f9" font-family="-apple-system, BlinkMacSystemFont, 'Segoe UI', Roboto, sans-serif" font-size="12.5" font-weight="600">OmniTune-Board</text></g><g transform="translate(70, 68) translate(0, 212) translate(516, 0)"><rect width="168" height="40" fill="url(#card-grad)" stroke="#334155" stroke-width="1.2" rx="9"/><circle cx="20" cy="20" r="9" fill="#059669" fill-opacity=".25"/><path fill="none" stroke="#34d399" stroke-linecap="round" stroke-linejoin="round" stroke-width="1.8" d="M21 14 L16 20 L20 20 L19 26 L25 19 L21 19 Z"/><text x="37" y="24" fill="#f1f5f9" font-family="-apple-system, BlinkMacSystemFont, 'Segoe UI', Roboto, sans-serif" font-size="12.5" font-weight="600">vLLM &amp; DeepSpeed</text></g></g></g><rect width="1198" height="418" x="1" y="1" fill="none" stroke="url(#brand-grad)" stroke-opacity=".45" stroke-width="1.5" rx="15"/></svg>